<svg viewBox="0 0 302 263" xmlns="http://www.w3.org/2000/svg"><g fill="none" fill-rule="evenodd"><path d="M142.165 77.687c10.839-6.907 21.642-15.441 32.41-25.603C190.73 36.84 234.288 9.622 240.535 5.719c6.246-3.903 17.793-7.382 20.833-2.517 3.04 4.865-49.099 53.55-59.498 60.048L159.91 89.468c-2.412 4.861-5.731 5.09-9.956.684-4.226-4.404-6.822-8.56-7.79-12.465z" fill="#D6D7FF"/><path d="M257.823 12.181c6.918-3.58 10.12-3.338 9.609.727-.768 6.097-22.166 30.963-37.249 46.857-15.083 15.893-43.884 38.11-49.236 41.455-5.351 3.344-11.087 10.733-14.344 5.521l-7.442-11.91c-5.863-2.172-7.175-4.27-3.934-6.296 3.24-2.025 37.44-27.476 102.596-76.354z" fill="#D6D7FF"/><path d="M193.184 138.463c-4.099.709-7.49 2.828-10.174 6.358-4.025 5.294-16.625 14.72-14.822 17.606 1.804 2.886 19.831 10.856 23.258 8.715 3.427-2.142 4.983 1.568 4.44-5.715-.362-4.856-1.262-13.844-2.702-26.964z" fill="#FF5ABB"/><path d="M225.136 74.606c33.792-15.751 53.095-24.187 57.909-25.307 4.814-1.12 1.784 7.106-9.09 24.68 16.6 3.113 25.619 5.82 27.056 8.12 1.438 2.301-5.214 9.526-19.955 21.674 13.553 7.907 19.43 12.422 17.63 13.547-1.8 1.124-21.762 9.676-59.888 25.656l-13.662-68.37z" fill="#EEEA00"/><path d="M206.524 195.181c-7.528-.598 13.32-12.532 38.886-17.403 18.521-3.528 40.514-9.45 51.245-6.377 4.081 1.168 3.986 8.937 5.188 10.86 4.362 6.981-87.791 13.518-95.319 12.92z" fill="#007307"/><path d="M161.596 90.038c-16.735 16.286-28.952 28.12-36.65 35.504-11.548 11.075-37.735 33.162-49.252 40.359-11.517 7.196-18.225 17.242-32.939 11-14.714-6.243-57.132-45.012-37.383-76.529 19.75-31.517 66.37-28.779 80.717-23.44 14.348 5.338 12.528 6.475 23.208 8.232 10.68 1.756 27.989-9.888 36.922-6.942 5.955 1.964 11.08 5.903 15.377 11.816zm-60.63 20.158c-.058-4.967-5.016-8.928-14.873-11.884-17.275-2.865-29.871-3.31-37.788-1.338-11.875 2.959-40.372 22.564-17.26 47.086 23.112 24.521 47.428 3.486 58.329-3.325 10.9-6.812 11.68-23.089 11.592-30.539z" fill="#FF6C13"/><path d="M171.1 107.374c.092 8.656-12.569 20.76-21.08 30.332-8.51 9.57-16.346 18.308-14.407 31.688 1.94 13.379 10.735 35.632-1.575 54.181-12.31 18.55-35.82 47.126-58.049 36.273-22.228-10.853-32.583-25.41-27.695-52.101 4.888-26.69 14.493-33.781 27.4-41.846 8.604-5.377 37.238-30.665 85.902-75.863 6.274 5.786 9.442 11.565 9.503 17.336zm-47.975 62.894c-2.129-3.407-9.308-9.255-16.495-6.666-7.188 2.59-13.813 6.211-30.494 23.591-16.68 17.38-9.811 41.454 5.086 52.087 14.897 10.633 31.081-11.49 34.57-17.685 3.49-6.195 3.615-21.912 6.906-32.278 3.29-10.366 2.556-15.642.427-19.05z" fill="#FF6C13"/><path d="M217.386 100.247c19.329-2.558 30.178-3.76 32.55-3.605 3.555.233.7 3.12 1.105 11.594.27 5.65-1.079 14.068-4.046 25.254l-34.905-.915 5.296-32.328z" fill="#00BEE0"/></g></svg>