<svg viewBox="0 0 329 259" xmlns="http://www.w3.org/2000/svg"><g fill="none" fill-rule="evenodd"><path d="M63.634 21.767c8.868-3.663 15.584-5.809 24.157-8.607 8.573-2.799 26.404-3.393 35.064-5.54 8.66-2.148 20.503-6.535 32.555-6.535 12.053 0 12.96-2.365 17.636 0 4.675 2.364 9.778 21.168 9.778 32.446 0 7.52 1.57 18.74 4.712 33.663 11.133 76.745 17.682 119.494 19.647 128.246 2.947 13.128 3.254 32.577-5.688 37.367-8.942 4.789-40.28 9.34-46.085 11.297-5.804 1.956-36.911 5.775-51.374 7.731-14.462 1.956-17.153 3.579-23.29-5.633-6.138-9.212-12.466-63.594-17.112-76.125-4.646-12.531-6.781-43.486-12.208-61.442-5.428-17.956-14.043-45.488-11.424-64.124C42.62 25.874 54.765 25.43 63.634 21.767z" fill="#00BC74"/><path d="M66.136 57.504c-.876-6.965 1.91-12.123 8.36-15.475 9.672-5.028 36.793-11.183 51.116-13.534 14.322-2.352 23.664-6.052 27.837 0 4.173 6.051 8.036 23.798 9.537 33.317 1.5 9.519 5.332 19.507 8.3 32.212 2.966 12.705 14.088 68.958 14.088 77.632 0 8.674 8.376 26.748 5.804 33.429-2.572 6.68-41.584 15.953-67.863 19.563-26.28 3.61-21.014 11.657-30.796-21.645s-13.549-53.712-18.024-73.027c-1.865-8.049-7.13-23.692-8.359-39.908-.49-6.484-.49-17.34 0-32.564z" fill="#FFFFF4"/><path d="M3.7 95.452c-6.559 6.705-.4 17.452 2.717 24.668 3.117 7.217 9.736 24.695 9.736 24.695l7.326 18.323 8.416-15.551c12.018-4.199 19.803-6.83 23.357-7.895 5.33-1.597 57.64-17.709 60.589-24.526 2.949-6.817-2.374-32.169-8.825-42.91-6.45-10.74-7.555-14.183-36.981-7.091-29.426 7.092-59.778 23.581-66.336 30.287z" fill="#2FCF00"/><path d="M111.858 16.41c-2.244.541-5.032 2.94-3.82 5.04 1.211 2.1 2.17 3.753 3.82 3.753 1.648 0 6.009-3.263 4.508-5.765-1.5-2.502-2.265-3.57-4.508-3.028z" fill="#007307"/><path d="M234.67 102.838c-4.902-19.537-7.353-31.688-7.353-36.455 0-7.15 3.505-17.905 7.353-17.905 3.847 0 12.672-2.23 15.64 0 2.97 2.23 16.385 5.05 25.011 30.967 8.627 25.917 20.76 35.764 27.544 45.006 6.782 9.243 25.553 28.011 25.366 47.199-.188 19.187-.61 16.766-5.331 35.392-4.722 18.626-29.368 23.816-42.669 29.446-13.3 5.63-84.23 23.8-96.315 21.754-12.085-2.047-18.143-2.21-18.143-8.573 0-6.364 21.732-21.754 24.178-23.403 1.631-1.099 5.943-4.766 12.936-11.002-35.778 12.945-55.6 19.418-59.469 19.418-5.802 0-19.366 4.44-22.512-6.745-3.146-11.183 35.63-32.336 44.867-36.093a4183.805 4183.805 0 0024.178-9.949c-36.595-1.584-57.77-2.377-63.526-2.377-8.633 0-21.027-11.534-8.951-21.961 12.076-10.428 35.136-11.08 49.89-15.904 9.836-3.215 18.002-4.823 24.5-4.823-30-14.857-46.553-23.733-49.661-26.628-4.663-4.341-15.237-12.724-9.95-21.414 5.287-8.69 20.91-11.851 35.424-7.2 14.514 4.652 37.706 12.65 43.924 15.319 4.145 1.779 11.835 3.756 23.069 5.93z" fill="#F68E00"/><path d="M240.986 70.827c1.436 1.27 3.918 0 6.87 0 2.951 0 7.92 2.128 7.72-2.226-.2-4.354-3.667-12.635-7.72-12.635-4.054 0-8.756.315-8.756 3.767 0 3.453.45 9.824 1.886 11.094zM156.18 102.816c1.048-3.393 1.572-5.65 1.572-6.77 0-3.731-1.572-5.106-1.572-5.634 0-1.149-12.442-2.257-13.64.955-1.198 3.212-2.955 8.366 4.518 10.008 4.982 1.094 8.022 1.574 9.122 1.44zM120.843 162.766c1.882-1.376 4.592-2.064 8.127-2.064 5.304 0 7.261 0 7.261 2.064s2.09 7.022 0 8.454c-2.09 1.433-10.07-.32-13.28-2.522-2.14-1.467-2.843-3.444-2.108-5.932zM130.453 227.464c-2.57-7.512 2.856-9.837 5.578-9.837 2.721 0 6.505-2.096 7.82 2.325 1.317 4.42.824 5.222-2.137 7.512-2.962 2.291-8.692 7.513-11.261 0zM177.103 249.853c.155-.542-.322-4.15 0-4.809 1.42-2.91 5.232-3.376 10.49-2.01 6.449 1.677 5.08 5.018 5.08 6.82 0 1.8-3.591 2.41-7.724 2.41s-8.687.525-7.846-2.41z" fill="#EEEA00"/></g></svg>