<svg width="251" height="198" viewBox="0 0 251 198" fill="none" xmlns="http://www.w3.org/2000/svg">
<path d="M30.002 143.975C30.183 137.653 49.329 133.679 56.192 134.041C58.541 134.221 58.722 134.944 58.722 136.931C58.722 137.653 58.722 138.917 59.624 138.917C61.069 138.917 66.307 134.221 73.894 134.583C85.995 135.124 91.956 147.407 91.414 158.244C90.872 170.707 81.48 183.351 68.114 182.809C63.779 182.628 59.624 180.099 58.721 180.099C57.457 180.099 57.096 181.906 57.096 182.989C56.734 190.034 62.514 188.047 62.334 192.562C61.972 197.62 53.664 197.981 50.051 197.8C37.769 197.258 28.377 192.382 28.557 187.685C28.738 183.531 32.531 185.157 34.337 181.725C35.421 179.738 35.963 177.209 36.324 166.914L36.504 161.857C36.866 152.284 36.324 150.117 35.963 149.574C34.879 148.31 29.822 149.213 30.003 143.974L30.002 143.975ZM111.824 117.965C114.894 117.605 115.798 119.591 116.159 122.3C116.339 124.287 116.339 134.583 117.965 147.587L120.133 165.288C120.313 166.914 120.675 169.984 121.217 171.429C122.661 174.681 126.455 172.694 127.177 176.487C127.9 182.628 116.701 183.351 112.727 183.892C108.573 184.434 95.749 186.422 95.027 179.919C94.665 176.668 98.639 177.39 99.361 173.959C100.084 169.984 98.819 158.605 98.278 154.089C97.916 150.477 97.194 143.614 95.929 139.64C93.762 132.957 88.524 136.028 87.982 130.79C87.079 122.842 110.56 118.146 111.824 117.965V117.965ZM218.572 101.167C221.462 100.445 228.145 99 229.59 102.974C231.215 108.212 225.255 107.489 223.63 113.63C222.546 117.243 222.184 121.578 222.004 125.37L220.92 141.266C220.017 154.27 217.669 167.456 203.219 171.61C196.897 173.597 188.408 172.513 186.24 165.108C184.796 160.592 187.144 155.896 191.66 154.632C199.968 152.102 200.329 162.218 203.941 161.134C206.29 160.412 206.651 157.702 206.109 155.715C205.386 153.187 202.496 150.477 200.871 148.49L181.002 126.274C178.293 123.384 173.597 125.732 172.332 121.758C171.61 119.049 172.152 114.714 190.756 109.295C194.007 108.392 202.136 106.405 203.58 111.463C204.303 113.811 202.496 115.075 203.038 117.243C203.941 120.494 209.721 125.551 211.166 125.19C213.876 124.468 213.876 117.785 213.334 115.617C212.25 111.644 209.541 112.727 208.638 109.657C207.193 104.961 215.321 102.071 218.572 101.167V101.167ZM151.2 123.023C156.438 122.481 170.888 123.023 172.333 136.75L173.236 145.962C174.861 162.037 179.557 152.645 179.919 157.702C180.461 162.94 173.959 169.262 167.275 169.984C160.05 170.707 159.508 166.191 157.16 166.372C155.896 166.552 154.993 167.817 153.006 169.082C151.2 170.346 148.49 171.972 144.336 172.332C136.569 173.055 128.622 169.804 127.719 160.772C126.996 154.27 132.415 145.601 148.49 143.975C151.38 143.614 152.645 143.614 152.284 140.362C151.922 137.472 151.2 131.151 147.045 131.512C141.627 132.054 141.988 141.988 133.86 142.892C130.97 143.252 128.622 141.266 128.26 138.376C127.538 130.609 142.53 123.926 151.2 123.023V123.023ZM62.514 147.768C59.083 147.588 57.999 148.852 57.276 165.65C57.096 168.72 58.541 169.804 61.792 169.984C67.392 170.165 68.475 164.024 68.655 159.689C68.836 155.354 68.114 147.949 62.515 147.768H62.514ZM151.405 150.468L151.2 150.478C147.949 150.658 146.142 153.909 146.504 156.799C146.864 159.147 148.31 161.495 151.019 161.315C154.632 160.953 154.451 157.16 154.089 154.451C153.909 152.464 153.729 150.297 151.199 150.477L151.405 150.468ZM73.171 72.268C82.021 72.088 87.441 76.783 87.621 85.815L87.982 105.322C88.162 110.74 91.594 111.102 91.594 113.811C91.775 119.591 81.299 120.133 77.687 120.133C74.797 120.133 63.959 119.772 63.959 114.895C63.959 111.463 67.029 111.644 67.029 106.225L66.849 97.916C66.669 93.943 67.029 86.356 61.792 86.356C56.734 86.537 57.276 92.678 57.276 96.11L57.456 101.89C57.818 113.27 61.069 111.282 61.069 114.714C61.069 120.314 50.051 120.674 46.8 120.674C32.892 120.855 32.17 118.327 32.17 115.798C32.17 110.921 36.866 114.714 36.324 103.696V98.458C36.144 95.026 36.504 86.898 31.267 86.898C26.209 87.078 26.751 93.22 26.751 96.652L26.931 104.057C27.112 112.547 29.641 112.005 29.099 114.895C29.099 117.243 27.112 120.494 14.469 120.675C11.037 120.855 0.0190201 121.035 0.0190201 116.159C-0.16098 112.005 5.43802 114.172 5.25702 102.612L5.07702 94.123C5.07702 88.343 3.81202 86.537 2.90902 85.815C1.64502 84.91 0.38002 84.91 0.38002 82.563C0.38002 75.7 23.139 72.81 23.32 72.81C25.667 72.81 25.848 74.797 25.848 76.783C25.848 77.867 25.487 80.938 27.474 80.938C28.377 80.938 29.822 78.951 32.35 76.783C34.88 74.797 38.492 72.629 43.91 72.629C54.928 72.449 55.109 80.577 57.096 80.577C57.818 80.577 59.444 78.59 62.153 76.422C64.863 74.435 68.475 72.268 73.171 72.268V72.268ZM157.341 46.439C159.689 45.716 160.231 46.981 160.773 48.968L166.011 67.752C167.636 73.352 168.178 75.7 170.346 74.977C171.791 74.435 176.486 69.739 176.126 68.475C175.764 67.391 173.778 67.211 173.236 65.405C171.971 60.889 180.822 57.818 183.892 56.915C187.324 55.831 197.078 52.941 198.703 58.36C199.968 62.334 196.175 61.43 191.84 66.307C191.117 67.03 188.227 69.739 188.589 70.823C189.311 72.99 203.399 82.563 205.748 84.008C211.166 87.621 216.043 86.176 217.127 89.788C218.03 92.498 216.766 95.568 209.902 97.555L197.439 101.348C193.827 102.432 193.285 102.432 190.395 100.264L179.015 92.317C178.655 91.775 175.584 89.607 174.681 89.788C173.597 90.15 174.319 91.956 174.501 92.498C176.668 100.445 179.738 96.652 181.002 100.806C181.725 103.335 182.267 107.128 168.54 111.282C161.315 113.45 153.187 116.159 151.38 110.379C150.116 106.044 155.715 107.669 153.729 100.264C152.103 93.943 150.116 85.454 148.852 81.66L145.059 69.017C142.891 61.972 137.653 68.837 136.028 63.779C134.221 57.819 152.825 47.523 157.341 46.439V46.439ZM112.366 61.069C117.604 59.986 132.054 58.721 134.944 72.268L136.931 81.299C140.543 97.013 143.975 87.259 145.059 92.136C146.142 97.374 140.362 104.419 133.86 105.864C126.816 107.309 125.551 102.794 123.384 103.334C122.3 103.696 121.397 105.141 119.591 106.586C117.785 108.212 115.437 110.018 111.282 110.921C103.877 112.547 95.568 110.199 93.582 101.348C92.136 95.026 96.472 85.634 112.366 82.202C115.076 81.66 116.34 81.48 115.617 78.228C114.895 75.158 113.45 69.017 109.295 69.92C103.877 71.184 105.502 80.938 97.555 82.744C94.665 83.466 92.136 81.841 91.414 78.951C89.788 71.184 103.877 62.876 112.366 61.069V61.069ZM119.049 92.136C118.507 90.15 118.146 87.801 115.617 88.524C112.547 89.246 111.102 92.498 111.824 95.388C112.366 97.736 114.172 99.903 116.701 99.361C120.133 98.639 119.591 94.846 119.049 92.136V92.136ZM216.946 31.628C231.396 25.487 242.414 33.976 245.123 40.298C247.471 46.078 245.303 47.884 242.595 48.968L224.171 56.734C223.268 57.096 221.823 57.457 222.365 58.902C224.171 63.056 231.215 64.321 235.189 62.695C241.691 60.166 243.136 54.928 244.943 54.205C246.749 53.483 249.278 55.47 250 57.095C252.71 63.598 242.775 73.352 235.008 76.603C219.836 82.925 207.373 75.339 202.678 64.321C197.078 51.135 204.303 37.047 216.946 31.628V31.628ZM43.007 14.649C47.161 14.649 51.497 23.139 51.497 26.932C51.497 29.46 49.329 31.267 46.981 31.267C41.743 31.267 38.672 24.042 34.699 24.042C33.073 24.042 31.447 25.306 31.447 27.112C31.447 33.072 51.677 34.157 51.677 48.426C51.677 57.096 43.368 63.056 33.795 63.056C31.989 63.056 29.28 62.695 26.932 62.334C24.584 62.154 22.597 61.792 22.055 61.792C21.513 61.792 20.971 61.792 20.249 61.972C19.707 61.972 19.165 62.153 18.443 62.153C16.636 62.153 15.733 61.973 14.469 60.527C12.121 57.818 9.77302 52.58 9.77302 49.148C9.77302 46.8 10.495 44.813 13.204 44.813C17.178 44.813 20.791 53.844 26.029 53.844C27.835 53.844 29.641 52.941 29.641 50.954C29.641 45.536 11.579 44.814 11.579 29.641C11.579 20.429 19.165 14.649 28.557 14.649C30.544 14.649 32.35 14.83 34.157 15.191C35.782 15.553 37.227 15.914 37.95 15.914C38.853 15.914 39.575 15.553 40.478 15.191C41.382 15.011 42.104 14.649 43.008 14.649H43.007ZM72.99 14.289C87.44 8.68903 98.278 17.359 100.806 23.861C102.974 29.461 100.626 31.267 97.916 32.351L79.312 39.575C78.409 39.937 76.964 40.298 77.506 41.743C79.132 46.078 86.176 47.523 90.15 45.897C96.652 43.368 98.278 38.311 100.084 37.588C101.89 37.047 104.419 39.033 105.141 40.659C107.67 47.342 97.555 56.734 89.788 59.805C74.255 65.946 61.972 57.818 57.818 46.439C52.58 33.254 60.166 19.346 72.99 14.289V14.289ZM227.061 43.007C225.797 39.937 222.907 38.492 219.836 39.756C217.126 41.02 216.043 44.813 217.126 47.523C218.391 50.593 220.92 48.606 223.087 47.703C225.435 46.62 228.325 46.078 227.061 43.007V43.007ZM126.274 1.46403C141.266 -3.05197 151.38 6.34103 153.367 13.024C155.109 18.597 152.987 20.308 150.243 21.233L149.935 21.333L130.789 27.113C129.886 27.473 128.261 27.654 128.803 29.099C130.067 33.434 136.931 35.421 141.085 34.157C147.587 32.17 149.755 27.112 151.561 26.571C153.367 26.029 155.715 28.377 156.257 30.002C158.244 36.866 147.407 45.536 139.459 47.884C123.565 52.58 112.005 43.549 108.573 32.35C104.419 18.804 113.089 5.43803 126.273 1.46403H126.274ZM82.744 26.209C81.48 22.959 78.77 21.332 75.519 22.597C72.629 23.681 71.545 27.474 72.629 30.364C73.894 33.434 76.603 31.628 78.77 30.724C80.938 29.822 84.008 29.28 82.744 26.209V26.209ZM134.944 13.746C134.041 10.496 131.331 8.68903 128.08 9.59203C125.19 10.315 123.745 14.108 124.648 16.998C125.551 20.248 128.261 18.623 130.608 17.901C132.957 17.178 135.847 16.998 134.944 13.746V13.746Z" fill="#313134"/>
</svg>
