<svg viewBox="0 0 293 316" xmlns="http://www.w3.org/2000/svg"><g fill="none" fill-rule="evenodd"><path d="M35.317 89.557l7.642-12.884c3.483-4.39 8.129-7.446 13.935-9.17 8.71-2.586 14.354-3.618 24.64 0 2.827.994 5.492 1.72 7.995 2.179l5.6 2.335c6.394 5.741 9.98 10.822 10.755 15.241 1.164 6.63.41 24.615-9.808 34.422-10.218 9.807-17.674 9.993-27.64 12.327-9.964 2.334-21.898-7.146-27.83-15.079-5.437-7.272-6.741-11.885-6.921-15.533a19.733 19.733 0 01-.023-.972c0-2.535.552-6.824 1.655-12.866z" fill="#EEEA00"/><path d="M134.663 100.68c1.387-27.062 10.492-41.96 27.317-44.694 16.825-2.734 31.014 10.95 42.568 41.052 12.038-5.99 23.639-9.3 34.801-9.93 6.684-.378 14.766 2.968 23.024 2.968 43.42 0 32.942 47.187 14.817 53.06-12.084 3.917-21.559 7.464-28.424 10.641 3.603 36.24-5.24 60.006-26.528 71.3-21.29 11.293-42.166 4.586-62.631-20.12-12.694 15.207-28.696 17.455-48.008 6.744-12.461-6.91-17.864-13.32-20.655-21.167-1.023-2.876-1.836-7.655-2.441-14.337-8.516 3.653-14.676 6.271-18.48 7.856-11.992 4.995-22.133 8.19-31.073 6.481-19.79-3.782-23.856-16.183-21.823-39.978 2.033-23.796 18.267-29.29 38.038-29.29 13.18 0 20.144 1.371 20.891 4.114 4.375-16.702 13.62-26.149 27.736-28.342 14.116-2.193 24.407-.98 30.87 3.642z" fill="#FFCDFF"/><path d="M.136 264.015c-1.418-3.51 13.651-11.977 26.88-17.322 13.229-5.345 21.304-3.7 23.361-4.53 2.058-.832 2.19-1.13.461-5.095-1.728-3.965-5.578-7.442-5.665-14.021-.086-6.579 2.692-27.86 14.644-44.158 11.952-16.3 32.978-48.892 36.183-48.097 2.137.53 3.5 15.01 4.089 43.44 23.278-11.002 36.166-15.513 38.663-13.53 2.497 1.98.992 13.98-4.515 35.999 24.544-4.672 37.425-5.498 38.645-2.48 1.83 4.528-10.825 27.303-30.863 43.833-20.039 16.53-23.244 23.164-32.376 23.131-9.133-.033-34.725-7.03-35.693-4.553-.968 2.478-.345 11.644-2.117 19.83-1.772 8.185-16.163 37.507-18.89 38.608-1.426.576-16.926-2.948-30.151-16.012C10.728 287.141.812 265.69.136 264.015z" fill="#FF5ABB"/><path d="M119.009 107.919h8.058l10.539-83.709s-3.804-4.934-5.442-3.083c-1.092 1.233-5.477 30.164-13.155 86.792z" fill="#007307"/><path d="M133.155 126.025c4.232 4.661 6.824 6.992 7.776 6.992 1.429 0 40.302-76.275 47.278-95.403 6.976-19.127 13.387-29.16 13.387-31.133 0-1.973-6.67-7.54-10.028-6.304-3.359 1.236-13.604 15.056-18.097 30.712-4.493 15.655-16.322 43.91-19.604 52.377-2.189 5.644-9.093 19.897-20.712 42.759z" fill="#F68E00"/><path d="M155.607 138.072c22.42-29.198 35.135-45.168 38.145-47.91 3.01-2.741 4.907 1.193 5.69 11.802l-35.444 37.917-8.39-1.809z" fill="#0A85E5"/><path d="M163 159.34c-1.887 4.781-1.887 7.171 0 7.171 2.83 0 125.379-59.093 127.93-68.215 2.55-9.122 1.829-16.098-2.266-13.959-2.73 1.427-44.618 26.428-125.664 75.003z" fill="#00BC74"/></g></svg>