<svg width="25" height="24" viewBox="0 0 25 24" fill="none" xmlns="http://www.w3.org/2000/svg">
<g clip-path="url(#clip0)">
<path d="M12.8 -18C-3.597 -18 -17 -4.669 -17 11.8C-17 28.268 -3.669 41.6 12.8 41.6C29.268 41.6 42.6 28.268 42.6 11.8C42.6 -4.67 29.267 -18 12.8 -18ZM12.8 39.318C-2.385 39.318 -14.719 26.985 -14.719 11.8C-14.719 -3.385 -2.385 -15.72 12.8 -15.72C27.985 -15.72 40.318 -3.386 40.318 11.799C40.318 26.984 27.985 39.317 12.8 39.317V39.318Z" fill="#313134"/>
<path d="M21.353 0.357422C19.642 0.357422 18.216 1.78342 18.216 3.49442C18.216 5.20442 19.642 6.63142 21.353 6.63142C23.064 6.63142 24.49 5.20542 24.49 3.49442C24.561 1.78342 23.135 0.357422 21.353 0.357422Z" fill="#313134"/>
<path d="M3.67301 6.63142C5.40553 6.63142 6.81001 5.22694 6.81001 3.49442C6.81001 1.7619 5.40553 0.357422 3.67301 0.357422C1.94049 0.357422 0.536011 1.7619 0.536011 3.49442C0.536011 5.22694 1.94049 6.63142 3.67301 6.63142Z" fill="#313134"/>
<path d="M12.513 20.7479C8.23503 20.7479 4.81303 17.2539 4.81303 13.0479H2.60303C2.60303 18.5379 7.09503 23.0279 12.584 23.0279C18.074 23.0279 22.565 18.5379 22.565 13.0479H20.355C20.284 17.3249 16.79 20.7479 12.513 20.7479Z" fill="#313134"/>
</g>
<defs>
<clipPath id="clip0">
<rect width="25" height="24" fill="white"/>
</clipPath>
</defs>
</svg>
